<mxfile host="app.diagrams.net" modified="2023-11-04T10:48:02.517Z" agent="Mozilla/5.0 (Windows NT 10.0; Win64; x64) AppleWebKit/537.36 (KHTML, like Gecko) Chrome/119.0.0.0 Safari/537.36" etag="MEPYM5WImpScmGQvx4AF" version="22.0.8" type="device">
  <diagram name="Страница — 1" id="-YNvMnQjq7Tij7BPcwQZ">
    <mxGraphModel dx="2577" dy="2059" grid="1" gridSize="10" guides="1" tooltips="1" connect="1" arrows="1" fold="1" page="1" pageScale="1" pageWidth="827" pageHeight="1169" math="0" shadow="0">
      <root>
        <mxCell id="0" />
        <mxCell id="1" parent="0" />
        <mxCell id="t78Gs1ULenRcxNKrH4xe-1" value="CPainter" style="swimlane;fontStyle=1;align=center;verticalAlign=top;childLayout=stackLayout;horizontal=1;startSize=26;horizontalStack=0;resizeParent=1;resizeParentMax=0;resizeLast=0;collapsible=1;marginBottom=0;whiteSpace=wrap;html=1;" parent="1" vertex="1">
          <mxGeometry x="350" y="-740" width="330" height="50" as="geometry" />
        </mxCell>
        <mxCell id="t78Gs1ULenRcxNKrH4xe-4" value="+ DrawPicture(CPictureDraft draft, ICanvas canvas)" style="text;strokeColor=none;fillColor=none;align=left;verticalAlign=top;spacingLeft=4;spacingRight=4;overflow=hidden;rotatable=0;points=[[0,0.5],[1,0.5]];portConstraint=eastwest;whiteSpace=wrap;html=1;" parent="t78Gs1ULenRcxNKrH4xe-1" vertex="1">
          <mxGeometry y="26" width="330" height="24" as="geometry" />
        </mxCell>
        <mxCell id="t78Gs1ULenRcxNKrH4xe-5" value="CPictureDraft" style="swimlane;fontStyle=1;align=center;verticalAlign=top;childLayout=stackLayout;horizontal=1;startSize=26;horizontalStack=0;resizeParent=1;resizeParentMax=0;resizeLast=0;collapsible=1;marginBottom=0;whiteSpace=wrap;html=1;" parent="1" vertex="1">
          <mxGeometry x="940" y="-310" width="276" height="164" as="geometry" />
        </mxCell>
        <mxCell id="t78Gs1ULenRcxNKrH4xe-6" value="+ m_shapes: vector&amp;lt;unique_ptr&amp;lt;CShape&amp;gt;" style="text;strokeColor=none;fillColor=none;align=left;verticalAlign=top;spacingLeft=4;spacingRight=4;overflow=hidden;rotatable=0;points=[[0,0.5],[1,0.5]];portConstraint=eastwest;whiteSpace=wrap;html=1;" parent="t78Gs1ULenRcxNKrH4xe-5" vertex="1">
          <mxGeometry y="26" width="276" height="26" as="geometry" />
        </mxCell>
        <mxCell id="t78Gs1ULenRcxNKrH4xe-7" value="" style="line;strokeWidth=1;fillColor=none;align=left;verticalAlign=middle;spacingTop=-1;spacingLeft=3;spacingRight=3;rotatable=0;labelPosition=right;points=[];portConstraint=eastwest;strokeColor=inherit;" parent="t78Gs1ULenRcxNKrH4xe-5" vertex="1">
          <mxGeometry y="52" width="276" height="8" as="geometry" />
        </mxCell>
        <mxCell id="t78Gs1ULenRcxNKrH4xe-8" value="+ IsEmpty(): bool" style="text;strokeColor=none;fillColor=none;align=left;verticalAlign=top;spacingLeft=4;spacingRight=4;overflow=hidden;rotatable=0;points=[[0,0.5],[1,0.5]];portConstraint=eastwest;whiteSpace=wrap;html=1;" parent="t78Gs1ULenRcxNKrH4xe-5" vertex="1">
          <mxGeometry y="60" width="276" height="26" as="geometry" />
        </mxCell>
        <mxCell id="t78Gs1ULenRcxNKrH4xe-9" value="+ AddShape(unique_ptr&amp;lt;CShape&amp;gt; shape)" style="text;strokeColor=none;fillColor=none;align=left;verticalAlign=top;spacingLeft=4;spacingRight=4;overflow=hidden;rotatable=0;points=[[0,0.5],[1,0.5]];portConstraint=eastwest;whiteSpace=wrap;html=1;" parent="t78Gs1ULenRcxNKrH4xe-5" vertex="1">
          <mxGeometry y="86" width="276" height="26" as="geometry" />
        </mxCell>
        <mxCell id="t78Gs1ULenRcxNKrH4xe-10" value="+ GetShapeCount(): size_t" style="text;strokeColor=none;fillColor=none;align=left;verticalAlign=top;spacingLeft=4;spacingRight=4;overflow=hidden;rotatable=0;points=[[0,0.5],[1,0.5]];portConstraint=eastwest;whiteSpace=wrap;html=1;" parent="t78Gs1ULenRcxNKrH4xe-5" vertex="1">
          <mxGeometry y="112" width="276" height="26" as="geometry" />
        </mxCell>
        <mxCell id="t78Gs1ULenRcxNKrH4xe-11" value="+ GetShape(size_t index): unique_ptr&amp;lt;CShape&amp;gt;" style="text;strokeColor=none;fillColor=none;align=left;verticalAlign=top;spacingLeft=4;spacingRight=4;overflow=hidden;rotatable=0;points=[[0,0.5],[1,0.5]];portConstraint=eastwest;whiteSpace=wrap;html=1;" parent="t78Gs1ULenRcxNKrH4xe-5" vertex="1">
          <mxGeometry y="138" width="276" height="26" as="geometry" />
        </mxCell>
        <mxCell id="t78Gs1ULenRcxNKrH4xe-12" value="CCanvas" style="swimlane;fontStyle=1;align=center;verticalAlign=top;childLayout=stackLayout;horizontal=1;startSize=26;horizontalStack=0;resizeParent=1;resizeParentMax=0;resizeLast=0;collapsible=1;marginBottom=0;whiteSpace=wrap;html=1;" parent="1" vertex="1">
          <mxGeometry x="-90" y="-260" width="420" height="164" as="geometry" />
        </mxCell>
        <mxCell id="t78Gs1ULenRcxNKrH4xe-16" value="+ m_window: RenderWindow" style="text;strokeColor=none;fillColor=none;align=left;verticalAlign=top;spacingLeft=4;spacingRight=4;overflow=hidden;rotatable=0;points=[[0,0.5],[1,0.5]];portConstraint=eastwest;whiteSpace=wrap;html=1;" parent="t78Gs1ULenRcxNKrH4xe-12" vertex="1">
          <mxGeometry y="26" width="420" height="26" as="geometry" />
        </mxCell>
        <mxCell id="t78Gs1ULenRcxNKrH4xe-13" value="+ m_color: Color" style="text;strokeColor=none;fillColor=none;align=left;verticalAlign=top;spacingLeft=4;spacingRight=4;overflow=hidden;rotatable=0;points=[[0,0.5],[1,0.5]];portConstraint=eastwest;whiteSpace=wrap;html=1;" parent="t78Gs1ULenRcxNKrH4xe-12" vertex="1">
          <mxGeometry y="52" width="420" height="26" as="geometry" />
        </mxCell>
        <mxCell id="t78Gs1ULenRcxNKrH4xe-14" value="" style="line;strokeWidth=1;fillColor=none;align=left;verticalAlign=middle;spacingTop=-1;spacingLeft=3;spacingRight=3;rotatable=0;labelPosition=right;points=[];portConstraint=eastwest;strokeColor=inherit;" parent="t78Gs1ULenRcxNKrH4xe-12" vertex="1">
          <mxGeometry y="78" width="420" height="8" as="geometry" />
        </mxCell>
        <mxCell id="t78Gs1ULenRcxNKrH4xe-15" value="+ SetColor(Color c)" style="text;strokeColor=none;fillColor=none;align=left;verticalAlign=top;spacingLeft=4;spacingRight=4;overflow=hidden;rotatable=0;points=[[0,0.5],[1,0.5]];portConstraint=eastwest;whiteSpace=wrap;html=1;" parent="t78Gs1ULenRcxNKrH4xe-12" vertex="1">
          <mxGeometry y="86" width="420" height="26" as="geometry" />
        </mxCell>
        <mxCell id="t78Gs1ULenRcxNKrH4xe-17" value="+ DrawLine(Point from, Point to)" style="text;strokeColor=none;fillColor=none;align=left;verticalAlign=top;spacingLeft=4;spacingRight=4;overflow=hidden;rotatable=0;points=[[0,0.5],[1,0.5]];portConstraint=eastwest;whiteSpace=wrap;html=1;" parent="t78Gs1ULenRcxNKrH4xe-12" vertex="1">
          <mxGeometry y="112" width="420" height="26" as="geometry" />
        </mxCell>
        <mxCell id="t78Gs1ULenRcxNKrH4xe-18" value="+ DrawEllipse(Point center, double horizontalRadius, double verticalRadius)" style="text;strokeColor=none;fillColor=none;align=left;verticalAlign=top;spacingLeft=4;spacingRight=4;overflow=hidden;rotatable=0;points=[[0,0.5],[1,0.5]];portConstraint=eastwest;whiteSpace=wrap;html=1;" parent="t78Gs1ULenRcxNKrH4xe-12" vertex="1">
          <mxGeometry y="138" width="420" height="26" as="geometry" />
        </mxCell>
        <mxCell id="t78Gs1ULenRcxNKrH4xe-19" value="CDesigner" style="swimlane;fontStyle=1;align=center;verticalAlign=top;childLayout=stackLayout;horizontal=1;startSize=26;horizontalStack=0;resizeParent=1;resizeParentMax=0;resizeLast=0;collapsible=1;marginBottom=0;whiteSpace=wrap;html=1;" parent="1" vertex="1">
          <mxGeometry x="1190" y="-480" width="270" height="86" as="geometry" />
        </mxCell>
        <mxCell id="t78Gs1ULenRcxNKrH4xe-20" value="+ m_factory: unique_ptr&amp;lt;IShapeFactory&amp;gt;" style="text;strokeColor=none;fillColor=none;align=left;verticalAlign=top;spacingLeft=4;spacingRight=4;overflow=hidden;rotatable=0;points=[[0,0.5],[1,0.5]];portConstraint=eastwest;whiteSpace=wrap;html=1;" parent="t78Gs1ULenRcxNKrH4xe-19" vertex="1">
          <mxGeometry y="26" width="270" height="26" as="geometry" />
        </mxCell>
        <mxCell id="t78Gs1ULenRcxNKrH4xe-21" value="" style="line;strokeWidth=1;fillColor=none;align=left;verticalAlign=middle;spacingTop=-1;spacingLeft=3;spacingRight=3;rotatable=0;labelPosition=right;points=[];portConstraint=eastwest;strokeColor=inherit;" parent="t78Gs1ULenRcxNKrH4xe-19" vertex="1">
          <mxGeometry y="52" width="270" height="8" as="geometry" />
        </mxCell>
        <mxCell id="t78Gs1ULenRcxNKrH4xe-22" value="+ CreateDraft(istream inputData): CPictureDraft" style="text;strokeColor=none;fillColor=none;align=left;verticalAlign=top;spacingLeft=4;spacingRight=4;overflow=hidden;rotatable=0;points=[[0,0.5],[1,0.5]];portConstraint=eastwest;whiteSpace=wrap;html=1;" parent="t78Gs1ULenRcxNKrH4xe-19" vertex="1">
          <mxGeometry y="60" width="270" height="26" as="geometry" />
        </mxCell>
        <mxCell id="t78Gs1ULenRcxNKrH4xe-23" value="CEllipse" style="swimlane;fontStyle=1;align=center;verticalAlign=top;childLayout=stackLayout;horizontal=1;startSize=26;horizontalStack=0;resizeParent=1;resizeParentMax=0;resizeLast=0;collapsible=1;marginBottom=0;whiteSpace=wrap;html=1;" parent="1" vertex="1">
          <mxGeometry x="890" y="12" width="210" height="138" as="geometry" />
        </mxCell>
        <mxCell id="t78Gs1ULenRcxNKrH4xe-27" value="+ m_center: Point" style="text;strokeColor=none;fillColor=none;align=left;verticalAlign=top;spacingLeft=4;spacingRight=4;overflow=hidden;rotatable=0;points=[[0,0.5],[1,0.5]];portConstraint=eastwest;whiteSpace=wrap;html=1;" parent="t78Gs1ULenRcxNKrH4xe-23" vertex="1">
          <mxGeometry y="26" width="210" height="26" as="geometry" />
        </mxCell>
        <mxCell id="t78Gs1ULenRcxNKrH4xe-28" value="+ m_horizontalRadius: double" style="text;strokeColor=none;fillColor=none;align=left;verticalAlign=top;spacingLeft=4;spacingRight=4;overflow=hidden;rotatable=0;points=[[0,0.5],[1,0.5]];portConstraint=eastwest;whiteSpace=wrap;html=1;" parent="t78Gs1ULenRcxNKrH4xe-23" vertex="1">
          <mxGeometry y="52" width="210" height="26" as="geometry" />
        </mxCell>
        <mxCell id="t78Gs1ULenRcxNKrH4xe-24" value="+ m_verticalRadius; double" style="text;strokeColor=none;fillColor=none;align=left;verticalAlign=top;spacingLeft=4;spacingRight=4;overflow=hidden;rotatable=0;points=[[0,0.5],[1,0.5]];portConstraint=eastwest;whiteSpace=wrap;html=1;" parent="t78Gs1ULenRcxNKrH4xe-23" vertex="1">
          <mxGeometry y="78" width="210" height="26" as="geometry" />
        </mxCell>
        <mxCell id="t78Gs1ULenRcxNKrH4xe-25" value="" style="line;strokeWidth=1;fillColor=none;align=left;verticalAlign=middle;spacingTop=-1;spacingLeft=3;spacingRight=3;rotatable=0;labelPosition=right;points=[];portConstraint=eastwest;strokeColor=inherit;" parent="t78Gs1ULenRcxNKrH4xe-23" vertex="1">
          <mxGeometry y="104" width="210" height="8" as="geometry" />
        </mxCell>
        <mxCell id="t78Gs1ULenRcxNKrH4xe-26" value="+ Draw(ICanvas canvas)" style="text;strokeColor=none;fillColor=none;align=left;verticalAlign=top;spacingLeft=4;spacingRight=4;overflow=hidden;rotatable=0;points=[[0,0.5],[1,0.5]];portConstraint=eastwest;whiteSpace=wrap;html=1;" parent="t78Gs1ULenRcxNKrH4xe-23" vertex="1">
          <mxGeometry y="112" width="210" height="26" as="geometry" />
        </mxCell>
        <mxCell id="t78Gs1ULenRcxNKrH4xe-29" value="CRectangle" style="swimlane;fontStyle=1;align=center;verticalAlign=top;childLayout=stackLayout;horizontal=1;startSize=26;horizontalStack=0;resizeParent=1;resizeParentMax=0;resizeLast=0;collapsible=1;marginBottom=0;whiteSpace=wrap;html=1;" parent="1" vertex="1">
          <mxGeometry x="196" y="10" width="160" height="112" as="geometry" />
        </mxCell>
        <mxCell id="t78Gs1ULenRcxNKrH4xe-33" value="+ m_rightBottom: Point" style="text;strokeColor=none;fillColor=none;align=left;verticalAlign=top;spacingLeft=4;spacingRight=4;overflow=hidden;rotatable=0;points=[[0,0.5],[1,0.5]];portConstraint=eastwest;whiteSpace=wrap;html=1;" parent="t78Gs1ULenRcxNKrH4xe-29" vertex="1">
          <mxGeometry y="26" width="160" height="26" as="geometry" />
        </mxCell>
        <mxCell id="t78Gs1ULenRcxNKrH4xe-30" value="+ m_leftTop: Point" style="text;strokeColor=none;fillColor=none;align=left;verticalAlign=top;spacingLeft=4;spacingRight=4;overflow=hidden;rotatable=0;points=[[0,0.5],[1,0.5]];portConstraint=eastwest;whiteSpace=wrap;html=1;" parent="t78Gs1ULenRcxNKrH4xe-29" vertex="1">
          <mxGeometry y="52" width="160" height="26" as="geometry" />
        </mxCell>
        <mxCell id="t78Gs1ULenRcxNKrH4xe-31" value="" style="line;strokeWidth=1;fillColor=none;align=left;verticalAlign=middle;spacingTop=-1;spacingLeft=3;spacingRight=3;rotatable=0;labelPosition=right;points=[];portConstraint=eastwest;strokeColor=inherit;" parent="t78Gs1ULenRcxNKrH4xe-29" vertex="1">
          <mxGeometry y="78" width="160" height="8" as="geometry" />
        </mxCell>
        <mxCell id="t78Gs1ULenRcxNKrH4xe-32" value="+ Draw(ICanvas canvas)" style="text;strokeColor=none;fillColor=none;align=left;verticalAlign=top;spacingLeft=4;spacingRight=4;overflow=hidden;rotatable=0;points=[[0,0.5],[1,0.5]];portConstraint=eastwest;whiteSpace=wrap;html=1;" parent="t78Gs1ULenRcxNKrH4xe-29" vertex="1">
          <mxGeometry y="86" width="160" height="26" as="geometry" />
        </mxCell>
        <mxCell id="t78Gs1ULenRcxNKrH4xe-34" value="CRegularPolygon" style="swimlane;fontStyle=1;align=center;verticalAlign=top;childLayout=stackLayout;horizontal=1;startSize=26;horizontalStack=0;resizeParent=1;resizeParentMax=0;resizeLast=0;collapsible=1;marginBottom=0;whiteSpace=wrap;html=1;" parent="1" vertex="1">
          <mxGeometry x="420" y="10" width="160" height="138" as="geometry" />
        </mxCell>
        <mxCell id="t78Gs1ULenRcxNKrH4xe-35" value="+ m_vertexCount: unsigned" style="text;strokeColor=none;fillColor=none;align=left;verticalAlign=top;spacingLeft=4;spacingRight=4;overflow=hidden;rotatable=0;points=[[0,0.5],[1,0.5]];portConstraint=eastwest;whiteSpace=wrap;html=1;" parent="t78Gs1ULenRcxNKrH4xe-34" vertex="1">
          <mxGeometry y="26" width="160" height="26" as="geometry" />
        </mxCell>
        <mxCell id="t78Gs1ULenRcxNKrH4xe-38" value="+ m_center: Point" style="text;strokeColor=none;fillColor=none;align=left;verticalAlign=top;spacingLeft=4;spacingRight=4;overflow=hidden;rotatable=0;points=[[0,0.5],[1,0.5]];portConstraint=eastwest;whiteSpace=wrap;html=1;" parent="t78Gs1ULenRcxNKrH4xe-34" vertex="1">
          <mxGeometry y="52" width="160" height="26" as="geometry" />
        </mxCell>
        <mxCell id="t78Gs1ULenRcxNKrH4xe-39" value="+ m_radius: double" style="text;strokeColor=none;fillColor=none;align=left;verticalAlign=top;spacingLeft=4;spacingRight=4;overflow=hidden;rotatable=0;points=[[0,0.5],[1,0.5]];portConstraint=eastwest;whiteSpace=wrap;html=1;" parent="t78Gs1ULenRcxNKrH4xe-34" vertex="1">
          <mxGeometry y="78" width="160" height="26" as="geometry" />
        </mxCell>
        <mxCell id="t78Gs1ULenRcxNKrH4xe-36" value="" style="line;strokeWidth=1;fillColor=none;align=left;verticalAlign=middle;spacingTop=-1;spacingLeft=3;spacingRight=3;rotatable=0;labelPosition=right;points=[];portConstraint=eastwest;strokeColor=inherit;" parent="t78Gs1ULenRcxNKrH4xe-34" vertex="1">
          <mxGeometry y="104" width="160" height="8" as="geometry" />
        </mxCell>
        <mxCell id="t78Gs1ULenRcxNKrH4xe-37" value="+ Draw(ICanvas canvas)" style="text;strokeColor=none;fillColor=none;align=left;verticalAlign=top;spacingLeft=4;spacingRight=4;overflow=hidden;rotatable=0;points=[[0,0.5],[1,0.5]];portConstraint=eastwest;whiteSpace=wrap;html=1;" parent="t78Gs1ULenRcxNKrH4xe-34" vertex="1">
          <mxGeometry y="112" width="160" height="26" as="geometry" />
        </mxCell>
        <mxCell id="t78Gs1ULenRcxNKrH4xe-40" value="CShape" style="swimlane;fontStyle=1;align=center;verticalAlign=top;childLayout=stackLayout;horizontal=1;startSize=26;horizontalStack=0;resizeParent=1;resizeParentMax=0;resizeLast=0;collapsible=1;marginBottom=0;whiteSpace=wrap;html=1;" parent="1" vertex="1">
          <mxGeometry x="590" y="-300" width="160" height="164" as="geometry" />
        </mxCell>
        <mxCell id="t78Gs1ULenRcxNKrH4xe-44" value="+ m_color: Color" style="text;strokeColor=none;fillColor=none;align=left;verticalAlign=top;spacingLeft=4;spacingRight=4;overflow=hidden;rotatable=0;points=[[0,0.5],[1,0.5]];portConstraint=eastwest;whiteSpace=wrap;html=1;" parent="t78Gs1ULenRcxNKrH4xe-40" vertex="1">
          <mxGeometry y="26" width="160" height="26" as="geometry" />
        </mxCell>
        <mxCell id="t78Gs1ULenRcxNKrH4xe-41" value="+ m_index: size_t" style="text;strokeColor=none;fillColor=none;align=left;verticalAlign=top;spacingLeft=4;spacingRight=4;overflow=hidden;rotatable=0;points=[[0,0.5],[1,0.5]];portConstraint=eastwest;whiteSpace=wrap;html=1;" parent="t78Gs1ULenRcxNKrH4xe-40" vertex="1">
          <mxGeometry y="52" width="160" height="26" as="geometry" />
        </mxCell>
        <mxCell id="t78Gs1ULenRcxNKrH4xe-42" value="" style="line;strokeWidth=1;fillColor=none;align=left;verticalAlign=middle;spacingTop=-1;spacingLeft=3;spacingRight=3;rotatable=0;labelPosition=right;points=[];portConstraint=eastwest;strokeColor=inherit;" parent="t78Gs1ULenRcxNKrH4xe-40" vertex="1">
          <mxGeometry y="78" width="160" height="8" as="geometry" />
        </mxCell>
        <mxCell id="t78Gs1ULenRcxNKrH4xe-43" value="+ GetIndex(): size_t" style="text;strokeColor=none;fillColor=none;align=left;verticalAlign=top;spacingLeft=4;spacingRight=4;overflow=hidden;rotatable=0;points=[[0,0.5],[1,0.5]];portConstraint=eastwest;whiteSpace=wrap;html=1;" parent="t78Gs1ULenRcxNKrH4xe-40" vertex="1">
          <mxGeometry y="86" width="160" height="26" as="geometry" />
        </mxCell>
        <mxCell id="t78Gs1ULenRcxNKrH4xe-45" value="+ GetColor(): Color" style="text;strokeColor=none;fillColor=none;align=left;verticalAlign=top;spacingLeft=4;spacingRight=4;overflow=hidden;rotatable=0;points=[[0,0.5],[1,0.5]];portConstraint=eastwest;whiteSpace=wrap;html=1;" parent="t78Gs1ULenRcxNKrH4xe-40" vertex="1">
          <mxGeometry y="112" width="160" height="26" as="geometry" />
        </mxCell>
        <mxCell id="t78Gs1ULenRcxNKrH4xe-46" value="+ Draw(ICanvas canvas)" style="text;strokeColor=none;fillColor=none;align=left;verticalAlign=top;spacingLeft=4;spacingRight=4;overflow=hidden;rotatable=0;points=[[0,0.5],[1,0.5]];portConstraint=eastwest;whiteSpace=wrap;html=1;" parent="t78Gs1ULenRcxNKrH4xe-40" vertex="1">
          <mxGeometry y="138" width="160" height="26" as="geometry" />
        </mxCell>
        <mxCell id="t78Gs1ULenRcxNKrH4xe-47" value="CShapeFactory" style="swimlane;fontStyle=1;align=center;verticalAlign=top;childLayout=stackLayout;horizontal=1;startSize=26;horizontalStack=0;resizeParent=1;resizeParentMax=0;resizeLast=0;collapsible=1;marginBottom=0;whiteSpace=wrap;html=1;" parent="1" vertex="1">
          <mxGeometry x="1300" y="-140" width="320" height="90" as="geometry" />
        </mxCell>
        <mxCell id="t78Gs1ULenRcxNKrH4xe-48" value="+ m_countOfCreatedShapes: size_t" style="text;strokeColor=none;fillColor=none;align=left;verticalAlign=top;spacingLeft=4;spacingRight=4;overflow=hidden;rotatable=0;points=[[0,0.5],[1,0.5]];portConstraint=eastwest;whiteSpace=wrap;html=1;" parent="t78Gs1ULenRcxNKrH4xe-47" vertex="1">
          <mxGeometry y="26" width="320" height="26" as="geometry" />
        </mxCell>
        <mxCell id="t78Gs1ULenRcxNKrH4xe-49" value="" style="line;strokeWidth=1;fillColor=none;align=left;verticalAlign=middle;spacingTop=-1;spacingLeft=3;spacingRight=3;rotatable=0;labelPosition=right;points=[];portConstraint=eastwest;strokeColor=inherit;" parent="t78Gs1ULenRcxNKrH4xe-47" vertex="1">
          <mxGeometry y="52" width="320" height="8" as="geometry" />
        </mxCell>
        <mxCell id="t78Gs1ULenRcxNKrH4xe-50" value="+ CreateShape(string description): unique_ptr&amp;lt;CShape&amp;gt;" style="text;strokeColor=none;fillColor=none;align=left;verticalAlign=top;spacingLeft=4;spacingRight=4;overflow=hidden;rotatable=0;points=[[0,0.5],[1,0.5]];portConstraint=eastwest;whiteSpace=wrap;html=1;" parent="t78Gs1ULenRcxNKrH4xe-47" vertex="1">
          <mxGeometry y="60" width="320" height="30" as="geometry" />
        </mxCell>
        <mxCell id="t78Gs1ULenRcxNKrH4xe-51" value="CTriangle" style="swimlane;fontStyle=1;align=center;verticalAlign=top;childLayout=stackLayout;horizontal=1;startSize=26;horizontalStack=0;resizeParent=1;resizeParentMax=0;resizeLast=0;collapsible=1;marginBottom=0;whiteSpace=wrap;html=1;" parent="1" vertex="1">
          <mxGeometry x="667" y="10" width="160" height="138" as="geometry" />
        </mxCell>
        <mxCell id="t78Gs1ULenRcxNKrH4xe-55" value="+ m_vertex1: Point" style="text;strokeColor=none;fillColor=none;align=left;verticalAlign=top;spacingLeft=4;spacingRight=4;overflow=hidden;rotatable=0;points=[[0,0.5],[1,0.5]];portConstraint=eastwest;whiteSpace=wrap;html=1;" parent="t78Gs1ULenRcxNKrH4xe-51" vertex="1">
          <mxGeometry y="26" width="160" height="26" as="geometry" />
        </mxCell>
        <mxCell id="t78Gs1ULenRcxNKrH4xe-56" value="+ m_vertex2: Point" style="text;strokeColor=none;fillColor=none;align=left;verticalAlign=top;spacingLeft=4;spacingRight=4;overflow=hidden;rotatable=0;points=[[0,0.5],[1,0.5]];portConstraint=eastwest;whiteSpace=wrap;html=1;" parent="t78Gs1ULenRcxNKrH4xe-51" vertex="1">
          <mxGeometry y="52" width="160" height="26" as="geometry" />
        </mxCell>
        <mxCell id="t78Gs1ULenRcxNKrH4xe-52" value="+ m_vertex3: Point" style="text;strokeColor=none;fillColor=none;align=left;verticalAlign=top;spacingLeft=4;spacingRight=4;overflow=hidden;rotatable=0;points=[[0,0.5],[1,0.5]];portConstraint=eastwest;whiteSpace=wrap;html=1;" parent="t78Gs1ULenRcxNKrH4xe-51" vertex="1">
          <mxGeometry y="78" width="160" height="26" as="geometry" />
        </mxCell>
        <mxCell id="t78Gs1ULenRcxNKrH4xe-53" value="" style="line;strokeWidth=1;fillColor=none;align=left;verticalAlign=middle;spacingTop=-1;spacingLeft=3;spacingRight=3;rotatable=0;labelPosition=right;points=[];portConstraint=eastwest;strokeColor=inherit;" parent="t78Gs1ULenRcxNKrH4xe-51" vertex="1">
          <mxGeometry y="104" width="160" height="8" as="geometry" />
        </mxCell>
        <mxCell id="t78Gs1ULenRcxNKrH4xe-54" value="+ Draw(ICanvas canvas)" style="text;strokeColor=none;fillColor=none;align=left;verticalAlign=top;spacingLeft=4;spacingRight=4;overflow=hidden;rotatable=0;points=[[0,0.5],[1,0.5]];portConstraint=eastwest;whiteSpace=wrap;html=1;" parent="t78Gs1ULenRcxNKrH4xe-51" vertex="1">
          <mxGeometry y="112" width="160" height="26" as="geometry" />
        </mxCell>
        <mxCell id="t78Gs1ULenRcxNKrH4xe-57" value="ICanvas" style="swimlane;fontStyle=1;align=center;verticalAlign=top;childLayout=stackLayout;horizontal=1;startSize=26;horizontalStack=0;resizeParent=1;resizeParentMax=0;resizeLast=0;collapsible=1;marginBottom=0;whiteSpace=wrap;html=1;" parent="1" vertex="1">
          <mxGeometry x="-90" y="-430" width="419" height="104" as="geometry" />
        </mxCell>
        <mxCell id="t78Gs1ULenRcxNKrH4xe-61" value="+ DrawLine(Point from, Point to)" style="text;strokeColor=none;fillColor=none;align=left;verticalAlign=top;spacingLeft=4;spacingRight=4;overflow=hidden;rotatable=0;points=[[0,0.5],[1,0.5]];portConstraint=eastwest;whiteSpace=wrap;html=1;" parent="t78Gs1ULenRcxNKrH4xe-57" vertex="1">
          <mxGeometry y="26" width="419" height="26" as="geometry" />
        </mxCell>
        <mxCell id="t78Gs1ULenRcxNKrH4xe-62" value="+ DrawEllipse(Point center, double horizontalRadius, double verticalRadius)" style="text;strokeColor=none;fillColor=none;align=left;verticalAlign=top;spacingLeft=4;spacingRight=4;overflow=hidden;rotatable=0;points=[[0,0.5],[1,0.5]];portConstraint=eastwest;whiteSpace=wrap;html=1;" parent="t78Gs1ULenRcxNKrH4xe-57" vertex="1">
          <mxGeometry y="52" width="419" height="26" as="geometry" />
        </mxCell>
        <mxCell id="t78Gs1ULenRcxNKrH4xe-60" value="+ SetColor(Color c)" style="text;strokeColor=none;fillColor=none;align=left;verticalAlign=top;spacingLeft=4;spacingRight=4;overflow=hidden;rotatable=0;points=[[0,0.5],[1,0.5]];portConstraint=eastwest;whiteSpace=wrap;html=1;" parent="t78Gs1ULenRcxNKrH4xe-57" vertex="1">
          <mxGeometry y="78" width="419" height="26" as="geometry" />
        </mxCell>
        <mxCell id="t78Gs1ULenRcxNKrH4xe-63" value="IShapeFactory" style="swimlane;fontStyle=1;align=center;verticalAlign=top;childLayout=stackLayout;horizontal=1;startSize=26;horizontalStack=0;resizeParent=1;resizeParentMax=0;resizeLast=0;collapsible=1;marginBottom=0;whiteSpace=wrap;html=1;" parent="1" vertex="1">
          <mxGeometry x="1300" y="-270" width="320" height="52" as="geometry" />
        </mxCell>
        <mxCell id="t78Gs1ULenRcxNKrH4xe-66" value="+ CreateShape(string description): unique_ptr&amp;lt;CShape&amp;gt;" style="text;strokeColor=none;fillColor=none;align=left;verticalAlign=top;spacingLeft=4;spacingRight=4;overflow=hidden;rotatable=0;points=[[0,0.5],[1,0.5]];portConstraint=eastwest;whiteSpace=wrap;html=1;" parent="t78Gs1ULenRcxNKrH4xe-63" vertex="1">
          <mxGeometry y="26" width="320" height="26" as="geometry" />
        </mxCell>
        <mxCell id="t78Gs1ULenRcxNKrH4xe-67" value="Point" style="swimlane;fontStyle=1;align=center;verticalAlign=top;childLayout=stackLayout;horizontal=1;startSize=26;horizontalStack=0;resizeParent=1;resizeParentMax=0;resizeLast=0;collapsible=1;marginBottom=0;whiteSpace=wrap;html=1;" parent="1" vertex="1">
          <mxGeometry x="650" y="340" width="160" height="78" as="geometry" />
        </mxCell>
        <mxCell id="t78Gs1ULenRcxNKrH4xe-68" value="+ x: double" style="text;strokeColor=none;fillColor=none;align=left;verticalAlign=top;spacingLeft=4;spacingRight=4;overflow=hidden;rotatable=0;points=[[0,0.5],[1,0.5]];portConstraint=eastwest;whiteSpace=wrap;html=1;" parent="t78Gs1ULenRcxNKrH4xe-67" vertex="1">
          <mxGeometry y="26" width="160" height="26" as="geometry" />
        </mxCell>
        <mxCell id="t78Gs1ULenRcxNKrH4xe-71" value="+ y: double" style="text;strokeColor=none;fillColor=none;align=left;verticalAlign=top;spacingLeft=4;spacingRight=4;overflow=hidden;rotatable=0;points=[[0,0.5],[1,0.5]];portConstraint=eastwest;whiteSpace=wrap;html=1;" parent="t78Gs1ULenRcxNKrH4xe-67" vertex="1">
          <mxGeometry y="52" width="160" height="26" as="geometry" />
        </mxCell>
        <mxCell id="AnB2SD6rqKawB2Yc-RQ1-1" value="" style="endArrow=block;dashed=1;endFill=0;endSize=12;html=1;rounded=0;" edge="1" parent="1" source="t78Gs1ULenRcxNKrH4xe-12" target="t78Gs1ULenRcxNKrH4xe-57">
          <mxGeometry width="160" relative="1" as="geometry">
            <mxPoint x="10" y="-180" as="sourcePoint" />
            <mxPoint x="170" y="-180" as="targetPoint" />
          </mxGeometry>
        </mxCell>
        <mxCell id="AnB2SD6rqKawB2Yc-RQ1-2" value="" style="endArrow=block;dashed=1;endFill=0;endSize=12;html=1;rounded=0;" edge="1" parent="1" source="t78Gs1ULenRcxNKrH4xe-47" target="t78Gs1ULenRcxNKrH4xe-63">
          <mxGeometry width="160" relative="1" as="geometry">
            <mxPoint x="1600" y="-100" as="sourcePoint" />
            <mxPoint x="1760" y="-100" as="targetPoint" />
          </mxGeometry>
        </mxCell>
        <mxCell id="AnB2SD6rqKawB2Yc-RQ1-3" value="Extends" style="endArrow=block;endSize=16;endFill=0;html=1;rounded=0;" edge="1" parent="1" source="t78Gs1ULenRcxNKrH4xe-29" target="t78Gs1ULenRcxNKrH4xe-40">
          <mxGeometry width="160" relative="1" as="geometry">
            <mxPoint x="580" y="-40" as="sourcePoint" />
            <mxPoint x="740" y="-40" as="targetPoint" />
          </mxGeometry>
        </mxCell>
        <mxCell id="AnB2SD6rqKawB2Yc-RQ1-4" value="Extends" style="endArrow=block;endSize=16;endFill=0;html=1;rounded=0;" edge="1" parent="1" source="t78Gs1ULenRcxNKrH4xe-34" target="t78Gs1ULenRcxNKrH4xe-40">
          <mxGeometry width="160" relative="1" as="geometry">
            <mxPoint x="580" y="-40" as="sourcePoint" />
            <mxPoint x="740" y="-40" as="targetPoint" />
          </mxGeometry>
        </mxCell>
        <mxCell id="AnB2SD6rqKawB2Yc-RQ1-5" value="Extends" style="endArrow=block;endSize=16;endFill=0;html=1;rounded=0;" edge="1" parent="1" source="t78Gs1ULenRcxNKrH4xe-51" target="t78Gs1ULenRcxNKrH4xe-40">
          <mxGeometry width="160" relative="1" as="geometry">
            <mxPoint x="580" y="-40" as="sourcePoint" />
            <mxPoint x="740" y="-40" as="targetPoint" />
          </mxGeometry>
        </mxCell>
        <mxCell id="AnB2SD6rqKawB2Yc-RQ1-6" value="Extends" style="endArrow=block;endSize=16;endFill=0;html=1;rounded=0;" edge="1" parent="1" source="t78Gs1ULenRcxNKrH4xe-23" target="t78Gs1ULenRcxNKrH4xe-40">
          <mxGeometry width="160" relative="1" as="geometry">
            <mxPoint x="580" y="-60" as="sourcePoint" />
            <mxPoint x="740" y="-60" as="targetPoint" />
          </mxGeometry>
        </mxCell>
        <mxCell id="AnB2SD6rqKawB2Yc-RQ1-9" value="" style="endArrow=diamondThin;endFill=1;endSize=24;html=1;rounded=0;" edge="1" parent="1" source="t78Gs1ULenRcxNKrH4xe-63" target="t78Gs1ULenRcxNKrH4xe-19">
          <mxGeometry width="160" relative="1" as="geometry">
            <mxPoint x="1140" y="-40" as="sourcePoint" />
            <mxPoint x="1300" y="-40" as="targetPoint" />
          </mxGeometry>
        </mxCell>
        <mxCell id="AnB2SD6rqKawB2Yc-RQ1-11" value="" style="endArrow=diamondThin;endFill=1;endSize=24;html=1;rounded=0;" edge="1" parent="1" source="t78Gs1ULenRcxNKrH4xe-40" target="t78Gs1ULenRcxNKrH4xe-5">
          <mxGeometry width="160" relative="1" as="geometry">
            <mxPoint x="1110" y="-300" as="sourcePoint" />
            <mxPoint x="1270" y="-300" as="targetPoint" />
          </mxGeometry>
        </mxCell>
        <mxCell id="AnB2SD6rqKawB2Yc-RQ1-13" value="Use" style="endArrow=open;endSize=12;dashed=1;html=1;rounded=0;" edge="1" parent="1" source="t78Gs1ULenRcxNKrH4xe-40" target="t78Gs1ULenRcxNKrH4xe-57">
          <mxGeometry width="160" relative="1" as="geometry">
            <mxPoint x="380" y="-240" as="sourcePoint" />
            <mxPoint x="540" y="-240" as="targetPoint" />
          </mxGeometry>
        </mxCell>
        <mxCell id="AnB2SD6rqKawB2Yc-RQ1-16" value="&lt;p style=&quot;margin:0px;margin-top:4px;text-align:center;&quot;&gt;&lt;i&gt;&amp;lt;&amp;lt;Enumeration&amp;gt;&amp;gt;&lt;/i&gt;&lt;br&gt;&lt;b&gt;Color&lt;/b&gt;&lt;/p&gt;&lt;hr size=&quot;1&quot;&gt;&lt;p style=&quot;margin:0px;margin-left:4px;&quot;&gt;+ Green&lt;/p&gt;&lt;p style=&quot;margin:0px;margin-left:4px;&quot;&gt;+ Red&lt;/p&gt;&lt;p style=&quot;margin:0px;margin-left:4px;&quot;&gt;+ Blue&lt;/p&gt;&lt;p style=&quot;margin:0px;margin-left:4px;&quot;&gt;+ Yellow&lt;/p&gt;&lt;p style=&quot;margin:0px;margin-left:4px;&quot;&gt;+ Pink&lt;/p&gt;&lt;p style=&quot;margin:0px;margin-left:4px;&quot;&gt;+ Black&lt;/p&gt;" style="verticalAlign=top;align=left;overflow=fill;fontSize=12;fontFamily=Helvetica;html=1;whiteSpace=wrap;" vertex="1" parent="1">
          <mxGeometry x="420" y="-580" width="190" height="140" as="geometry" />
        </mxCell>
        <mxCell id="AnB2SD6rqKawB2Yc-RQ1-17" value="" style="endArrow=diamondThin;endFill=1;endSize=24;html=1;rounded=0;" edge="1" parent="1" source="AnB2SD6rqKawB2Yc-RQ1-16" target="t78Gs1ULenRcxNKrH4xe-40">
          <mxGeometry width="160" relative="1" as="geometry">
            <mxPoint x="660" y="-350" as="sourcePoint" />
            <mxPoint x="820" y="-350" as="targetPoint" />
          </mxGeometry>
        </mxCell>
        <mxCell id="AnB2SD6rqKawB2Yc-RQ1-18" value="Use" style="endArrow=open;endSize=12;dashed=1;html=1;rounded=0;" edge="1" parent="1" source="t78Gs1ULenRcxNKrH4xe-57" target="AnB2SD6rqKawB2Yc-RQ1-16">
          <mxGeometry width="160" relative="1" as="geometry">
            <mxPoint x="440" y="-280" as="sourcePoint" />
            <mxPoint x="600" y="-280" as="targetPoint" />
          </mxGeometry>
        </mxCell>
        <mxCell id="AnB2SD6rqKawB2Yc-RQ1-19" value="Use" style="endArrow=open;endSize=12;dashed=1;html=1;rounded=0;" edge="1" parent="1" source="t78Gs1ULenRcxNKrH4xe-1" target="t78Gs1ULenRcxNKrH4xe-5">
          <mxGeometry width="160" relative="1" as="geometry">
            <mxPoint x="510" y="-420" as="sourcePoint" />
            <mxPoint x="670" y="-420" as="targetPoint" />
          </mxGeometry>
        </mxCell>
        <mxCell id="AnB2SD6rqKawB2Yc-RQ1-20" value="Use" style="endArrow=open;endSize=12;dashed=1;html=1;rounded=0;" edge="1" parent="1" source="t78Gs1ULenRcxNKrH4xe-1" target="t78Gs1ULenRcxNKrH4xe-57">
          <mxGeometry width="160" relative="1" as="geometry">
            <mxPoint x="510" y="-420" as="sourcePoint" />
            <mxPoint x="670" y="-420" as="targetPoint" />
          </mxGeometry>
        </mxCell>
        <mxCell id="AnB2SD6rqKawB2Yc-RQ1-21" value="" style="endArrow=diamondThin;endFill=1;endSize=24;html=1;rounded=0;" edge="1" parent="1" source="t78Gs1ULenRcxNKrH4xe-67" target="t78Gs1ULenRcxNKrH4xe-23">
          <mxGeometry width="160" relative="1" as="geometry">
            <mxPoint x="860" y="60" as="sourcePoint" />
            <mxPoint x="1020" y="60" as="targetPoint" />
          </mxGeometry>
        </mxCell>
        <mxCell id="AnB2SD6rqKawB2Yc-RQ1-23" value="" style="endArrow=diamondThin;endFill=1;endSize=24;html=1;rounded=0;" edge="1" parent="1" source="t78Gs1ULenRcxNKrH4xe-67" target="t78Gs1ULenRcxNKrH4xe-34">
          <mxGeometry width="160" relative="1" as="geometry">
            <mxPoint x="710" y="150" as="sourcePoint" />
            <mxPoint x="870" y="150" as="targetPoint" />
          </mxGeometry>
        </mxCell>
        <mxCell id="AnB2SD6rqKawB2Yc-RQ1-24" value="" style="endArrow=diamondThin;endFill=1;endSize=24;html=1;rounded=0;" edge="1" parent="1" source="t78Gs1ULenRcxNKrH4xe-67" target="t78Gs1ULenRcxNKrH4xe-51">
          <mxGeometry width="160" relative="1" as="geometry">
            <mxPoint x="710" y="150" as="sourcePoint" />
            <mxPoint x="850" y="190" as="targetPoint" />
          </mxGeometry>
        </mxCell>
        <mxCell id="AnB2SD6rqKawB2Yc-RQ1-25" value="" style="endArrow=diamondThin;endFill=1;endSize=24;html=1;rounded=0;" edge="1" parent="1" source="t78Gs1ULenRcxNKrH4xe-67" target="t78Gs1ULenRcxNKrH4xe-29">
          <mxGeometry width="160" relative="1" as="geometry">
            <mxPoint x="710" y="150" as="sourcePoint" />
            <mxPoint x="870" y="150" as="targetPoint" />
          </mxGeometry>
        </mxCell>
        <mxCell id="AnB2SD6rqKawB2Yc-RQ1-26" value="Use" style="endArrow=open;endSize=12;dashed=1;html=1;rounded=0;" edge="1" parent="1" source="t78Gs1ULenRcxNKrH4xe-19" target="t78Gs1ULenRcxNKrH4xe-5">
          <mxGeometry width="160" relative="1" as="geometry">
            <mxPoint x="1050" y="-330" as="sourcePoint" />
            <mxPoint x="1210" y="-330" as="targetPoint" />
          </mxGeometry>
        </mxCell>
      </root>
    </mxGraphModel>
  </diagram>
</mxfile>
